<svg xmlns="http://www.w3.org/2000/svg" width="224" height="52" fill="none" style="display: block;">
              <path fill="#000" d="M55.997 19.998c0 6.626-5.372 11.998-11.998 11.998-6.625 0-11.998-5.372-11.998-11.998C32.001 13.372 37.374 8 44 8c6.626 0 11.998 5.372 11.998 11.998Z"></path>
              <path fill="#000" d="M44 31.996C37.37 31.996 32 37.368 32 43.994h23.996c0-6.626-5.372-11.998-11.998-11.998ZM32.001 8C25.372 8 20 13.372 20 19.998c0 6.626 5.372 11.998 12.001 11.998V8Z"></path>
              <path fill="#000" d="M32.001 31.996C25.372 31.996 20 37.368 20 43.994h12.001V31.996ZM55.997 8c6.626 0 11.998 5.372 11.998 11.998 0 6.626-5.372 11.998-11.998 11.998V8ZM55.997 31.996c6.626 0 11.998 5.372 11.998 11.998H55.997V31.996ZM77.023 18.776v-6.35h25.704v6.35h-8.942v24.536H86.01V18.776h-8.987ZM105.964 12.423h14.557c6.868 0 11.015 3.155 11.015 8.985 0 4.104-2.421 6.696-6.263 7.56v.085c7.731 1.34 4.924 13.307 6.696 13.823v.433h-8.079c-1.511-1.296 1.297-10.757-5.314-10.757h-4.838v10.757h-7.774V12.423Zm7.774 13.783h5.268c3.112 0 4.752-1.124 4.752-3.717 0-2.592-1.64-3.714-4.752-3.714h-5.268v7.43ZM143.825 12.423V43.31h-7.774V12.423h7.774ZM168.491 26.768v.086c3.241.562 6.006 2.722 6.006 7.344 0 6.568-4.19 9.114-10.585 9.114h-15.423V12.426h14.989c6.439 0 9.805 2.507 9.805 7.778 0 3.802-2.245 5.7-4.795 6.567l.003-.003Zm-6.868-1.858c2.16 0 3.889-.52 3.889-3.066s-1.726-3.069-3.889-3.069h-5.357v6.135h5.357Zm-5.357 12.053h5.572c3.241 0 4.881-.777 4.881-3.67 0-2.894-1.64-3.631-4.881-3.631h-5.572v7.3ZM190.61 44c-9.332 0-12.916-4.147-12.916-11.835V12.423h7.774v19.742c0 4.018 1.726 5.486 5.142 5.486 3.416 0 5.142-1.468 5.142-5.486V12.423h7.774v19.742c0 7.691-3.584 11.835-12.916 11.835Z"></path>
            </svg>